# xmcd
#
# Track frame offsets:
#	150
#	11782
#	24042
#	36768
#	49876
#	62727
#	74278
#	85746
#	98589
#	111502
#	124780
#	138938
#	149999
#	163012
#	175426
#	188530
#	200791
#	211518
#	223306
#	235525
#	249208
#	259339
#	271168
#	284474
#
# Disc length: 3967 seconds
#
# Revision: 1
# Processed by: cddbd v1.5.1PL2 Copyright (c) Steve Scherf et al.
# Submitted via: audiograbber 1.83.01
#
DISCID=640f7d18
DTITLE=Various Artist - Hillbilly Bop, Boogie and the Honky Tonk Blues, v.1 - di
DTITLE=sc 2
DYEAR=1900
DGENRE=Country
TTITLE0=Jerry Irby - Hillbilly Boogie
TTITLE1=Jack Rivers - Jelly Bean Rag
TTITLE2=Chet Atkins - Boogie Man Boogie
TTITLE3=Kenny Roberts - Choo Choo Ch'boogie
TTITLE4=Buz Butler - Rubber Ball Bounce
TTITLE5=Louis Innes - My Dreamboat Struck a Snag
TTITLE6=Happy Wilson - The Haunted House Boogie
TTITLE7=Smokey Rogers - Lose Your Blues
TTITLE8=Sam Nichols and the Melody Rangers - Who Puts the Cat Out When Papa's Out
TTITLE8=Of Town
TTITLE9=Bob Eaton and his Lone Star Boys - Virginia On a Saturday Night
TTITLE10=Leon McAuliffe and his Western Swing Band - Birmingham Bounce
TTITLE11=Smokey Rogers - Tamburitza Boogie
TTITLE12=Al Dexter - Hi De Ho Boogie
TTITLE13=Eddie Crosby - Blues Stay Away From Me
TTITLE14=York Brothers - Motor City Boogie
TTITLE15=Jerry Byrd and the String Dusters - Byrd's Boogie
TTITLE16=Tennessee Ernie Ford - I Ain't Gonna Let It Happen Anymore
TTITLE17=Louie Innes - Good Morning Judge
TTITLE18=Carolina Cotton - Lovin' Ducky Daddy
TTITLE19=Jimmie and Leon Short - Long Gone Daddy
TTITLE20=Ann Jones - You've Gotta See Mama Ev'ry Night
TTITLE21=Gene O'Quinn - The Hard Way
TTITLE22=The Down Homers - Nothin' Clickin' Chicken
TTITLE23=Red Perkins - Hoe Down Boogie
EXTD=
EXTT0=
EXTT1=
EXTT2=
EXTT3=
EXTT4=
EXTT5=
EXTT6=
EXTT7=
EXTT8=
EXTT9=
EXTT10=
EXTT11=
EXTT12=
EXTT13=
EXTT14=
EXTT15=
EXTT16=
EXTT17=
EXTT18=
EXTT19=
EXTT20=
EXTT21=
EXTT22=
EXTT23=
PLAYORDER=
